<?xml version="1.0" encoding="UTF-8"?>
<svg xmlns="http://www.w3.org/2000/svg" xmlns:xlink="http://www.w3.org/1999/xlink" width="339pt" height="251pt" viewBox="0 0 339 251" version="1.1">
<g id="surface1">
<path style=" stroke:none;fill-rule:nonzero;fill:rgb(0%,0%,0%);fill-opacity:1;" d="M 90.226562 25.519531 C 87.148438 26.496094 82.648438 31.675781 79.425781 37.980469 C 77.398438 42.109375 76.875 43.835938 76.949219 47.363281 C 77.023438 52.691406 80.023438 59.222656 83.625 62 C 89.023438 66.128906 100.5 68.003906 107.398438 65.902344 C 111.300781 64.777344 116.476562 58.996094 117.75 54.492188 C 119.851562 46.988281 117.449219 37.605469 111.824219 30.773438 C 108.601562 26.945312 108.300781 28.449219 111.300781 33.550781 C 114.976562 39.855469 116.101562 46.460938 114.449219 51.867188 C 112.125 59.070312 108.074219 62.300781 101.175781 62.300781 C 96 62.300781 89.476562 60.421875 87.074219 58.320312 C 82.726562 54.34375 81.300781 46.613281 83.925781 41.433594 C 86.550781 36.328125 91.050781 33.777344 97.425781 33.777344 C 104.625 33.777344 107.023438 31.148438 103.574219 26.945312 C 102.449219 25.519531 101.398438 25.21875 97.425781 24.996094 C 94.800781 24.917969 91.574219 25.144531 90.226562 25.519531 Z M 90.226562 25.519531 "/>
<path style=" stroke:none;fill-rule:nonzero;fill:rgb(0%,0%,0%);fill-opacity:1;" d="M 84.375 79.339844 C 83.398438 79.488281 81.074219 82.640625 77.625 88.421875 C 61.273438 116.117188 57.75 122.347656 52.125 133.230469 C 42.898438 151.320312 40.125 161.378906 43.199219 165.730469 C 45.601562 169.183594 48.375 169.933594 60.148438 170.234375 C 71.476562 170.535156 92.699219 168.734375 95.476562 167.234375 C 97.574219 166.105469 99 161.980469 99.523438 155.449219 C 100.273438 145.242188 98.925781 142.386719 94.425781 144.566406 C 91.875 145.839844 91.5 146.890625 90.675781 154.246094 C 89.851562 162.578125 89.023438 163.03125 72 164.457031 C 61.125 165.355469 51.375 165.054688 48.824219 163.707031 C 43.875 161.003906 49.726562 145.992188 69.824219 109.960938 C 75.375 100.054688 80.925781 89.695312 82.125 86.917969 C 84.226562 82.265625 84.601562 81.890625 87.523438 81.140625 C 89.25 80.6875 91.800781 80.3125 93.148438 80.238281 C 94.5 80.164062 96.449219 79.863281 97.5 79.5625 C 99.449219 78.964844 87.375 78.738281 84.375 79.339844 Z M 84.375 79.339844 "/>
<path style=" stroke:none;fill-rule:nonzero;fill:rgb(0%,0%,0%);fill-opacity:1;" d="M 104.625 79.636719 C 105.898438 79.9375 108.75 80.464844 111 80.6875 C 113.25 80.914062 115.5 81.363281 115.949219 81.664062 C 116.398438 81.964844 119.25 87.070312 122.398438 93.148438 C 125.476562 99.152344 130.726562 108.761719 134.023438 114.542969 C 146.101562 135.484375 154.5 154.246094 154.5 160.253906 C 154.5 163.03125 152.625 164.230469 147.226562 164.832031 C 136.875 165.882812 113.25 162.953125 113.25 160.476562 C 113.25 160.101562 113.023438 159.953125 112.726562 160.101562 C 112.351562 160.328125 112.050781 157.699219 111.898438 154.324219 C 111.601562 147.792969 110.550781 145.242188 107.773438 144.191406 C 106.800781 143.816406 105.523438 143.890625 104.699219 144.265625 C 103.5 144.941406 103.351562 145.839844 103.648438 153.722656 C 103.949219 162.953125 105.148438 166.859375 107.773438 167.683594 C 112.125 168.960938 132.074219 170.535156 141.75 170.234375 C 151.5 170.011719 152.925781 169.859375 155.398438 168.285156 C 164.773438 162.503906 159.375 148.394531 126.898438 93.523438 C 121.425781 84.367188 118.351562 79.9375 117.148438 79.488281 C 116.175781 79.113281 112.5 78.8125 108.898438 78.886719 C 103.949219 78.964844 102.898438 79.113281 104.625 79.636719 Z M 104.625 79.636719 "/>
<path style=" stroke:none;fill-rule:nonzero;fill:rgb(0%,0%,0%);fill-opacity:1;" d="M 97.800781 93.449219 C 97.199219 95.027344 96.824219 96.675781 97.050781 97.277344 C 97.273438 97.804688 95.550781 101.179688 93.226562 104.859375 C 86.476562 115.515625 84 121.296875 84 126.101562 C 84 134.65625 90.449219 140.285156 100.351562 140.363281 C 111.375 140.363281 120 131.28125 119.101562 120.546875 C 118.726562 116.042969 117.226562 113.265625 110.625 105.082031 C 108.601562 102.53125 105.675781 98.328125 104.175781 95.777344 C 100.949219 90.222656 99.449219 89.621094 97.800781 93.449219 Z M 99.523438 102.304688 C 99.976562 103.28125 101.550781 105.007812 103.050781 106.285156 C 113.699219 114.839844 115.050781 116.792969 114.601562 122.722656 C 113.699219 133.832031 101.550781 139.910156 92.175781 133.980469 C 88.949219 131.878906 86.550781 126.699219 87.300781 123.324219 C 87.824219 120.921875 97.648438 100.65625 98.324219 100.65625 C 98.550781 100.582031 99.148438 101.332031 99.523438 102.304688 Z M 99.523438 102.304688 "/>
<path style=" stroke:none;fill-rule:nonzero;fill:rgb(0%,0%,0%);fill-opacity:1;" d="M 42.226562 192.304688 C 42.375 192.828125 43.199219 195.230469 43.949219 197.632812 C 44.699219 199.960938 45.601562 201.835938 46.050781 201.6875 C 46.949219 201.386719 50.476562 192.152344 49.875 191.550781 C 49.273438 190.953125 49.125 191.402344 47.476562 196.207031 L 46.050781 200.636719 L 44.625 195.980469 C 43.875 193.503906 42.976562 191.402344 42.523438 191.402344 C 42.148438 191.402344 42 191.851562 42.226562 192.304688 Z M 42.226562 192.304688 "/>
<path style=" stroke:none;fill-rule:nonzero;fill:rgb(0%,0%,0%);fill-opacity:1;" d="M 51.75 195.457031 C 51.75 199.960938 52.949219 201.910156 55.800781 201.910156 C 58.5 201.910156 59.25 200.484375 59.175781 195.605469 L 59.023438 191.027344 L 58.574219 195.304688 C 58.050781 200.257812 56.925781 201.910156 54.898438 200.710938 C 54 200.109375 53.550781 198.683594 53.398438 195.605469 C 53.101562 190.203125 51.75 190.050781 51.75 195.457031 Z M 51.75 195.457031 "/>
<path style=" stroke:none;fill-rule:nonzero;fill:rgb(0%,0%,0%);fill-opacity:1;" d="M 62.398438 196.429688 L 62.25 201.910156 L 65.476562 201.835938 L 68.625 201.6875 L 66 201.234375 L 63.375 200.785156 L 62.476562 191.027344 Z M 62.398438 196.429688 "/>
<path style=" stroke:none;fill-rule:nonzero;fill:rgb(0%,0%,0%);fill-opacity:1;" d="M 69.898438 196.808594 L 70.050781 202.285156 L 70.273438 197.40625 L 70.574219 192.601562 L 73.5 197.257812 C 75.148438 199.808594 76.648438 201.910156 76.875 201.910156 C 77.101562 201.910156 77.175781 199.433594 77.101562 196.429688 C 76.949219 191.101562 76.949219 191.027344 76.726562 195.457031 L 76.425781 199.882812 L 73.800781 195.605469 C 72.300781 193.277344 70.800781 191.402344 70.425781 191.402344 C 70.050781 191.402344 69.824219 193.878906 69.898438 196.808594 Z M 69.898438 196.808594 "/>
<path style=" stroke:none;fill-rule:nonzero;fill:rgb(0%,0%,0%);fill-opacity:1;" d="M 80.25 196.65625 L 80.25 201.910156 L 83.476562 201.835938 L 86.625 201.6875 L 84 201.234375 C 81.824219 200.859375 81.300781 200.410156 81.148438 198.757812 C 80.925781 197.03125 81.226562 196.730469 83.398438 196.429688 L 85.875 196.132812 L 83.476562 196.054688 C 81.375 195.90625 81 195.605469 81 194.105469 C 81 192.601562 81.449219 192.226562 83.476562 191.929688 C 85.800781 191.628906 85.800781 191.628906 83.101562 191.550781 L 80.25 191.402344 Z M 80.25 196.65625 "/>
<path style=" stroke:none;fill-rule:nonzero;fill:rgb(0%,0%,0%);fill-opacity:1;" d="M 87.75 196.65625 C 87.75 199.660156 88.050781 201.910156 88.5 201.910156 C 88.949219 201.910156 89.25 200.933594 89.25 199.734375 C 89.25 195.90625 91.5 196.054688 93 199.960938 C 94.050781 202.886719 94.875 201.835938 93.824219 198.910156 C 93.226562 197.183594 93.300781 196.207031 93.898438 195.15625 C 95.175781 193.203125 93.449219 191.402344 90.300781 191.402344 L 87.75 191.402344 Z M 92.851562 194.179688 C 93.074219 195.605469 92.773438 195.90625 91.199219 195.90625 C 89.625 195.90625 89.25 195.53125 89.25 193.953125 C 89.25 192.378906 89.550781 192.078125 90.976562 192.304688 C 92.023438 192.453125 92.699219 193.128906 92.851562 194.179688 Z M 92.851562 194.179688 "/>
<path style=" stroke:none;fill-rule:nonzero;fill:rgb(0%,0%,0%);fill-opacity:1;" d="M 97.574219 196.28125 C 96.601562 198.984375 96 201.460938 96.226562 201.6875 C 96.523438 201.910156 97.050781 201.234375 97.425781 200.109375 C 98.476562 197.40625 101.773438 197.332031 102.449219 200.035156 C 102.675781 201.085938 103.273438 201.910156 103.648438 201.910156 C 104.101562 201.910156 104.25 201.460938 104.023438 200.933594 C 103.875 200.484375 103.050781 198.082031 102.300781 195.679688 C 101.550781 193.355469 100.574219 191.402344 100.125 191.402344 C 99.675781 191.402344 98.476562 193.578125 97.574219 196.28125 Z M 101.101562 194.929688 C 101.851562 197.257812 101.851562 197.40625 100.125 197.40625 C 98.476562 197.40625 98.398438 197.257812 99.226562 194.78125 C 99.675781 193.355469 100.050781 192.226562 100.125 192.378906 C 100.199219 192.453125 100.648438 193.65625 101.101562 194.929688 Z M 101.101562 194.929688 "/>
<path style=" stroke:none;fill-rule:nonzero;fill:rgb(0%,0%,0%);fill-opacity:1;" d="M 106.5 196.730469 L 106.5 201.984375 L 108.824219 201.761719 C 111.75 201.460938 113.25 199.507812 112.050781 197.558594 C 111.449219 196.65625 111.449219 195.90625 111.976562 195.003906 C 113.101562 193.277344 111.375 191.402344 108.675781 191.402344 L 106.5 191.402344 Z M 110.625 194.03125 C 110.625 195.003906 110.023438 195.605469 108.976562 195.757812 C 107.550781 195.980469 107.25 195.679688 107.25 194.03125 C 107.25 192.378906 107.550781 192.078125 108.976562 192.304688 C 110.023438 192.453125 110.625 193.054688 110.625 194.03125 Z M 111 197.78125 C 112.199219 199.207031 110.773438 201.160156 108.675781 201.160156 C 107.625 201.160156 107.25 200.636719 107.25 198.910156 C 107.25 197.183594 107.625 196.65625 108.675781 196.65625 C 109.425781 196.65625 110.476562 197.183594 111 197.78125 Z M 111 197.78125 "/>
<path style=" stroke:none;fill-rule:nonzero;fill:rgb(0%,0%,0%);fill-opacity:1;" d="M 114.75 196.65625 C 114.75 199.660156 115.050781 201.910156 115.5 201.910156 C 115.949219 201.910156 116.25 199.660156 116.25 196.65625 C 116.25 193.65625 115.949219 191.402344 115.5 191.402344 C 115.050781 191.402344 114.75 193.65625 114.75 196.65625 Z M 114.75 196.65625 "/>
<path style=" stroke:none;fill-rule:nonzero;fill:rgb(0%,0%,0%);fill-opacity:1;" d="M 118.5 196.65625 L 118.5 201.910156 L 121.726562 201.761719 C 124.425781 201.6875 124.574219 201.609375 122.476562 201.386719 L 120 201.085938 L 120 196.207031 C 120 193.503906 119.699219 191.402344 119.25 191.402344 C 118.800781 191.402344 118.5 193.65625 118.5 196.65625 Z M 118.5 196.65625 "/>
<path style=" stroke:none;fill-rule:nonzero;fill:rgb(0%,0%,0%);fill-opacity:1;" d="M 126 196.65625 C 126 199.660156 126.300781 201.910156 126.75 201.910156 C 127.199219 201.910156 127.5 199.660156 127.5 196.65625 C 127.5 193.65625 127.199219 191.402344 126.75 191.402344 C 126.300781 191.402344 126 193.65625 126 196.65625 Z M 126 196.65625 "/>
<path style=" stroke:none;fill-rule:nonzero;fill:rgb(0%,0%,0%);fill-opacity:1;" d="M 129.75 196.65625 L 129.75 201.910156 L 132.300781 201.910156 C 135.976562 201.910156 138.300781 199.734375 138.300781 196.28125 C 138.300781 192.828125 136.574219 191.402344 132.601562 191.402344 L 129.75 191.402344 Z M 135.824219 192.902344 C 137.925781 194.03125 137.773438 198.457031 135.601562 199.960938 C 132.226562 202.359375 131.25 201.609375 131.25 196.65625 C 131.25 192.601562 131.398438 192.152344 132.824219 192.152344 C 133.648438 192.152344 135 192.527344 135.824219 192.902344 Z M 135.824219 192.902344 "/>
<path style=" stroke:none;fill-rule:nonzero;fill:rgb(0%,0%,0%);fill-opacity:1;" d="M 141.824219 195.980469 C 140.023438 201.460938 139.800781 203.1875 141.449219 200.183594 C 142.949219 197.480469 146.023438 197.332031 146.699219 200.035156 C 146.925781 201.085938 147.449219 201.910156 147.824219 201.910156 C 148.648438 201.910156 148.726562 202.359375 146.773438 196.730469 C 145.875 194.03125 144.75 191.777344 144.300781 191.628906 C 143.773438 191.476562 142.726562 193.355469 141.824219 195.980469 Z M 145.425781 196.429688 C 145.5 196.957031 144.824219 197.40625 144 197.40625 C 142.273438 197.40625 142.273438 197.40625 143.324219 194.628906 C 144.074219 192.679688 144.226562 192.601562 144.75 194.03125 C 145.125 194.855469 145.425781 195.980469 145.425781 196.429688 Z M 145.425781 196.429688 "/>
<path style=" stroke:none;fill-rule:nonzero;fill:rgb(0%,0%,0%);fill-opacity:1;" d="M 150.75 196.65625 L 150.75 201.910156 L 153 201.910156 C 155.851562 201.910156 159 198.984375 159 196.28125 C 159 193.578125 156.523438 191.402344 153.375 191.402344 L 150.75 191.402344 Z M 156.074219 192.902344 C 158.175781 194.03125 158.023438 198.457031 155.851562 199.960938 C 152.476562 202.359375 151.5 201.609375 151.5 196.65625 C 151.5 192.601562 151.648438 192.152344 153.074219 192.152344 C 153.898438 192.152344 155.25 192.527344 156.074219 192.902344 Z M 156.074219 192.902344 "/>
<path style=" stroke:none;fill-rule:nonzero;fill:rgb(0%,0%,0%);fill-opacity:1;" d="M 165.898438 194.105469 C 166.800781 195.605469 167.773438 198.082031 168.074219 199.585938 L 168.601562 202.285156 L 168.675781 199.660156 C 168.75 198.234375 169.425781 195.90625 170.324219 194.480469 C 171.148438 193.128906 171.675781 191.851562 171.523438 191.628906 C 171.300781 191.476562 170.476562 192.453125 169.648438 193.730469 L 168.148438 196.132812 L 166.949219 193.804688 C 166.273438 192.453125 165.375 191.402344 165 191.402344 C 164.625 191.402344 165 192.601562 165.898438 194.105469 Z M 165.898438 194.105469 "/>
<path style=" stroke:none;fill-rule:nonzero;fill:rgb(0%,0%,0%);fill-opacity:1;" d="M 177.75 196.65625 C 177.75 199.660156 178.050781 201.910156 178.5 201.910156 C 178.949219 201.910156 179.25 200.859375 179.25 199.660156 C 179.25 197.933594 179.550781 197.40625 180.75 197.40625 C 181.574219 197.40625 182.476562 198.007812 182.699219 198.683594 C 182.925781 199.433594 183.300781 200.484375 183.449219 201.085938 C 183.675781 201.6875 183.976562 201.910156 184.199219 201.6875 C 184.5 201.460938 184.273438 200.183594 183.824219 198.910156 C 183.226562 197.183594 183.300781 196.207031 183.898438 195.15625 C 185.175781 193.203125 183.449219 191.402344 180.300781 191.402344 L 177.75 191.402344 Z M 182.851562 194.179688 C 183.074219 195.605469 182.773438 195.90625 181.199219 195.90625 C 179.625 195.90625 179.25 195.53125 179.25 193.953125 C 179.25 192.378906 179.550781 192.078125 180.976562 192.304688 C 182.023438 192.453125 182.699219 193.128906 182.851562 194.179688 Z M 182.851562 194.179688 "/>
<path style=" stroke:none;fill-rule:nonzero;fill:rgb(0%,0%,0%);fill-opacity:1;" d="M 186.976562 196.65625 C 186.976562 199.734375 187.125 201.011719 187.273438 199.433594 C 187.425781 197.933594 187.425781 195.378906 187.273438 193.804688 C 187.125 192.304688 186.976562 193.578125 186.976562 196.65625 Z M 186.976562 196.65625 "/>
<path style=" stroke:none;fill-rule:nonzero;fill:rgb(0%,0%,0%);fill-opacity:1;" d="M 190.5 196.65625 L 190.5 201.910156 L 193.726562 201.835938 L 196.875 201.6875 L 194.25 201.234375 C 192.074219 200.859375 191.625 200.484375 191.625 198.910156 C 191.625 197.40625 192.074219 196.957031 193.875 196.730469 L 196.125 196.429688 L 193.875 195.980469 C 192.300781 195.679688 191.550781 195.003906 191.398438 193.878906 C 191.175781 192.527344 191.625 192.226562 193.648438 191.929688 L 196.125 191.628906 L 193.351562 191.550781 L 190.5 191.402344 Z M 190.5 196.65625 "/>
<path style=" stroke:none;fill-rule:nonzero;fill:rgb(0%,0%,0%);fill-opacity:1;" d="M 198.523438 191.929688 C 197.324219 193.128906 198.148438 195.304688 200.25 196.507812 C 203.25 198.15625 203.101562 200.785156 200.101562 200.785156 C 198.898438 200.710938 198 201.011719 198 201.308594 C 198 202.359375 202.273438 201.984375 203.25 200.785156 C 204.601562 199.207031 203.851562 197.332031 201.375 195.90625 C 200.175781 195.230469 199.125 194.179688 199.125 193.578125 C 199.125 193.054688 200.175781 192.304688 201.375 192.078125 L 203.625 191.550781 L 201.300781 191.476562 C 200.023438 191.476562 198.75 191.628906 198.523438 191.929688 Z M 198.523438 191.929688 "/>
<path style=" stroke:none;fill-rule:nonzero;fill:rgb(0%,0%,0%);fill-opacity:1;" d="M 207 192.902344 C 203.625 196.28125 206.25 202.210938 210.976562 201.761719 C 213.074219 201.535156 213.375 201.234375 213.601562 199.058594 C 213.824219 196.957031 213.601562 196.65625 212.101562 196.730469 C 210.75 196.808594 210.675781 196.882812 211.726562 197.183594 C 212.625 197.40625 213 198.082031 212.851562 199.132812 C 212.699219 200.410156 212.175781 200.785156 210.449219 200.636719 C 207.824219 200.410156 207 199.359375 207 196.132812 C 207 193.429688 207.675781 192.828125 211.5 192.078125 L 214.125 191.550781 L 211.351562 191.476562 C 209.398438 191.402344 207.976562 191.929688 207 192.902344 Z M 207 192.902344 "/>
<path style=" stroke:none;fill-rule:nonzero;fill:rgb(0%,0%,0%);fill-opacity:1;" d="M 217.273438 192.753906 C 214.425781 195.90625 216.449219 201.910156 220.351562 201.910156 C 224.25 201.910156 226.648438 195.378906 223.800781 192.601562 C 222.226562 190.953125 218.773438 191.101562 217.273438 192.753906 Z M 222.75 192.828125 C 224.101562 193.730469 224.175781 198.382812 222.824219 199.960938 C 222.300781 200.636719 221.175781 201.160156 220.425781 201.160156 C 218.925781 201.160156 216.75 198.457031 216.75 196.65625 C 216.75 194.855469 218.925781 192.152344 220.351562 192.152344 C 221.023438 192.152344 222.148438 192.453125 222.75 192.828125 Z M 222.75 192.828125 "/>
<path style=" stroke:none;fill-rule:nonzero;fill:rgb(0%,0%,0%);fill-opacity:1;" d="M 231.75 196.65625 L 231.75 201.910156 L 234.601562 201.761719 C 237.300781 201.6875 237.300781 201.6875 234.976562 201.386719 C 232.800781 201.085938 232.5 200.785156 232.5 198.910156 C 232.5 197.03125 232.800781 196.730469 234.976562 196.429688 L 237.375 196.132812 L 234.976562 196.054688 C 232.875 195.90625 232.5 195.605469 232.5 194.105469 C 232.5 192.601562 232.949219 192.226562 234.976562 191.929688 C 237.300781 191.628906 237.300781 191.628906 234.601562 191.550781 L 231.75 191.402344 Z M 231.75 196.65625 "/>
<path style=" stroke:none;fill-rule:nonzero;fill:rgb(0%,0%,0%);fill-opacity:1;" d="M 239.25 196.582031 C 239.25 199.660156 239.550781 201.910156 240 201.910156 C 240.449219 201.910156 240.75 199.960938 240.75 197.558594 L 240.75 193.277344 L 242.699219 196.507812 C 243.75 198.308594 244.800781 199.585938 245.101562 199.359375 C 245.625 198.757812 241.351562 192.003906 240.226562 191.550781 C 239.476562 191.328125 239.25 192.679688 239.25 196.582031 Z M 239.25 196.582031 "/>
<path style=" stroke:none;fill-rule:nonzero;fill:rgb(0%,0%,0%);fill-opacity:1;" d="M 245.925781 195.53125 C 245.851562 197.78125 245.773438 200.035156 245.699219 200.558594 C 245.625 201.011719 246.074219 201.535156 246.601562 201.6875 C 247.273438 201.984375 247.5 200.636719 247.5 196.730469 C 247.5 190.425781 246.074219 189.375 245.925781 195.53125 Z M 245.925781 195.53125 "/>
<path style=" stroke:none;fill-rule:nonzero;fill:rgb(0%,0%,0%);fill-opacity:1;" d="M 254.324219 192.453125 C 253.273438 193.730469 253.949219 195.679688 255.75 196.28125 C 256.5 196.507812 257.550781 197.183594 258 197.78125 C 259.351562 199.433594 257.550781 201.386719 255.148438 200.785156 C 254.023438 200.484375 253.574219 200.636719 253.875 201.160156 C 254.476562 202.210938 257.476562 202.136719 258.601562 201.011719 C 260.175781 199.433594 259.574219 197.40625 257.25 196.054688 C 254.476562 194.480469 254.625 192.679688 257.625 192.078125 L 259.875 191.550781 L 257.550781 191.476562 C 256.273438 191.476562 254.773438 191.851562 254.324219 192.453125 Z M 254.324219 192.453125 "/>
<path style=" stroke:none;fill-rule:nonzero;fill:rgb(0%,0%,0%);fill-opacity:1;" d="M 261.75 196.65625 C 261.75 199.660156 262.050781 201.910156 262.5 201.910156 C 262.949219 201.910156 263.25 199.660156 263.25 196.65625 C 263.25 193.65625 262.949219 191.402344 262.5 191.402344 C 262.050781 191.402344 261.75 193.65625 261.75 196.65625 Z M 261.75 196.65625 "/>
<path style=" stroke:none;fill-rule:nonzero;fill:rgb(0%,0%,0%);fill-opacity:1;" d="M 266.023438 191.929688 C 264.824219 193.128906 265.648438 195.304688 267.75 196.507812 C 270.75 198.15625 270.601562 200.785156 267.601562 200.785156 C 266.398438 200.710938 265.5 201.011719 265.5 201.308594 C 265.5 201.609375 266.476562 201.910156 267.675781 201.910156 C 271.875 201.910156 272.773438 197.859375 269.023438 196.054688 C 266.324219 194.78125 266.324219 192.378906 269.101562 191.929688 C 271.050781 191.628906 271.050781 191.628906 268.800781 191.476562 C 267.523438 191.476562 266.25 191.628906 266.023438 191.929688 Z M 266.023438 191.929688 "/>
<path style=" stroke:none;fill-rule:nonzero;fill:rgb(0%,0%,0%);fill-opacity:1;" d="M 273.601562 191.929688 C 275.101562 192.226562 275.25 192.679688 275.25 197.105469 C 275.25 199.808594 275.550781 201.910156 276 201.910156 C 276.449219 201.910156 276.75 199.808594 276.75 197.105469 C 276.75 192.679688 276.898438 192.226562 278.476562 191.929688 C 279.375 191.777344 278.25 191.628906 276 191.628906 C 273.75 191.628906 272.625 191.777344 273.601562 191.929688 Z M 273.601562 191.929688 "/>
<path style=" stroke:none;fill-rule:nonzero;fill:rgb(0%,0%,0%);fill-opacity:1;" d="M 281.25 196.65625 L 281.25 201.910156 L 284.476562 201.761719 C 287.175781 201.6875 287.324219 201.609375 285.226562 201.386719 C 283.050781 201.085938 282.75 200.785156 282.75 198.910156 C 282.75 197.105469 283.125 196.730469 284.851562 196.429688 L 286.875 196.132812 L 284.851562 195.980469 C 283.125 195.90625 282.75 195.53125 282.75 194.105469 C 282.75 192.601562 283.199219 192.226562 285.226562 191.929688 C 287.324219 191.703125 287.175781 191.628906 284.476562 191.550781 L 281.25 191.402344 Z M 281.25 196.65625 "/>
<path style=" stroke:none;fill-rule:nonzero;fill:rgb(0%,0%,0%);fill-opacity:1;" d="M 289.351562 196.65625 C 289.199219 199.585938 289.351562 201.910156 289.648438 201.910156 C 289.949219 201.910156 290.25 199.808594 290.398438 197.183594 L 290.625 192.527344 L 292.050781 196.65625 C 293.851562 202.0625 294.375 202.511719 295.425781 199.507812 C 295.949219 198.15625 296.851562 195.980469 297.375 194.78125 C 298.351562 192.601562 298.425781 192.679688 298.425781 197.183594 C 298.5 199.808594 298.726562 201.910156 299.101562 201.910156 C 299.398438 201.910156 299.550781 199.585938 299.398438 196.65625 C 299.25 193.804688 298.800781 191.402344 298.425781 191.402344 C 297.976562 191.402344 297.148438 192.679688 296.550781 194.179688 C 294.074219 200.484375 294.300781 200.335938 292.875 195.679688 C 290.925781 189.75 289.648438 190.125 289.351562 196.65625 Z M 289.351562 196.65625 "/>
<path style=" stroke:none;fill-rule:nonzero;fill:rgb(0%,0%,0%);fill-opacity:1;" d="M 303.148438 196.355469 C 302.175781 199.058594 301.574219 201.535156 301.800781 201.6875 C 302.023438 201.910156 302.550781 201.234375 302.925781 200.109375 C 303.976562 197.40625 307.273438 197.40625 308.324219 200.109375 C 308.699219 201.234375 309.226562 201.910156 309.449219 201.761719 C 310.050781 201.085938 306.601562 191.402344 305.699219 191.402344 C 305.25 191.402344 304.125 193.65625 303.148438 196.355469 Z M 306.675781 195.15625 C 307.351562 197.257812 307.273438 197.40625 305.625 197.40625 C 303.976562 197.40625 303.898438 197.257812 304.574219 195.15625 C 305.023438 193.878906 305.476562 192.902344 305.625 192.902344 C 305.773438 192.902344 306.226562 193.878906 306.675781 195.15625 Z M 306.675781 195.15625 "/>
<path style=" stroke:none;fill-rule:nonzero;fill:rgb(0%,0%,0%);fill-opacity:1;" d="M 312 192.902344 C 311.175781 194.40625 311.25 194.480469 315 197.332031 C 316.574219 198.53125 316.726562 198.910156 315.75 199.960938 C 315.074219 200.859375 314.101562 201.085938 312.898438 200.785156 C 311.773438 200.484375 311.324219 200.636719 311.625 201.160156 C 312.226562 202.210938 315.226562 202.136719 316.351562 201.011719 C 317.925781 199.433594 317.324219 197.40625 315 196.054688 C 312.226562 194.480469 312.375 192.679688 315.375 192.078125 L 317.625 191.550781 L 315.226562 191.476562 C 313.5 191.402344 312.601562 191.851562 312 192.902344 Z M 312 192.902344 "/>
<path style=" stroke:none;fill-rule:nonzero;fill:rgb(0%,0%,0%);fill-opacity:1;" d="M 42 215.046875 L 42 221.425781 L 45.375 221.425781 C 49.800781 221.425781 52.5 219.023438 52.5 215.046875 C 52.5 211.066406 49.800781 208.667969 45.375 208.667969 L 42 208.667969 Z M 48.226562 210.242188 C 50.476562 211.445312 51 212.34375 51 215.195312 C 51 217.898438 48.148438 220.675781 45.300781 220.675781 C 43.574219 220.675781 43.5 220.449219 43.5 215.046875 C 43.5 209.867188 43.648438 209.417969 45.074219 209.417969 C 45.898438 209.417969 47.324219 209.792969 48.226562 210.242188 Z M 48.226562 210.242188 "/>
<path style=" stroke:none;fill-rule:nonzero;fill:rgb(0%,0%,0%);fill-opacity:1;" d="M 54.75 215.046875 L 54.75 221.425781 L 58.726562 221.351562 C 62.550781 221.203125 62.550781 221.203125 59.625 220.75 C 56.925781 220.375 56.625 220.074219 56.398438 217.824219 C 56.175781 215.496094 56.25 215.421875 58.800781 215.421875 C 60.300781 215.421875 61.5 215.046875 61.5 214.597656 C 61.5 214.144531 60.449219 213.921875 59.101562 214.070312 C 56.773438 214.296875 56.625 214.144531 56.625 212.042969 C 56.625 210.015625 56.925781 209.71875 59.625 209.34375 C 62.550781 208.890625 62.550781 208.890625 58.726562 208.742188 L 54.75 208.667969 Z M 54.75 215.046875 "/>
<path style=" stroke:none;fill-rule:nonzero;fill:rgb(0%,0%,0%);fill-opacity:1;" d="M 73.5 208.890625 C 73.5 209.042969 72.523438 211.894531 71.25 215.273438 C 70.050781 218.648438 69.375 221.425781 69.75 221.425781 C 70.199219 221.425781 70.949219 220.601562 71.398438 219.550781 C 72.074219 218.125 72.824219 217.671875 74.699219 217.671875 C 76.648438 217.671875 77.175781 218.046875 77.550781 219.550781 C 77.851562 220.601562 78.375 221.425781 78.75 221.425781 C 79.800781 221.425781 79.726562 220.976562 77.550781 214.519531 C 76.351562 210.84375 75.226562 208.667969 74.550781 208.667969 C 73.949219 208.667969 73.5 208.742188 73.5 208.890625 Z M 76.425781 215.570312 C 76.5 215.945312 75.675781 216.171875 74.625 216.171875 C 72.523438 216.171875 72.375 215.871094 73.648438 212.34375 L 74.476562 209.867188 L 75.449219 212.417969 C 75.976562 213.84375 76.425781 215.273438 76.425781 215.570312 Z M 76.425781 215.570312 "/>
<path style=" stroke:none;fill-rule:nonzero;fill:rgb(0%,0%,0%);fill-opacity:1;" d="M 83.625 210.542969 C 81.523438 212.570312 81.074219 217.222656 82.726562 219.398438 C 83.773438 220.902344 87.300781 221.953125 90.226562 221.578125 C 92.101562 221.351562 92.25 221.050781 92.25 217.972656 C 92.25 214.820312 92.175781 214.671875 90 214.671875 C 88.800781 214.671875 87.75 214.972656 87.75 215.421875 C 87.75 215.796875 88.425781 216.171875 89.25 216.171875 C 90.449219 216.171875 90.75 216.699219 90.75 218.425781 C 90.75 220.375 90.449219 220.675781 88.648438 220.675781 C 85.273438 220.675781 83.25 218.722656 83.25 215.570312 C 83.25 214.070312 83.550781 212.417969 83.851562 211.96875 C 84.824219 210.46875 87.898438 209.265625 89.699219 209.71875 C 90.75 210.015625 91.5 209.867188 91.5 209.417969 C 91.5 209.042969 90.148438 208.667969 88.5 208.667969 C 86.25 208.667969 84.976562 209.191406 83.625 210.542969 Z M 83.625 210.542969 "/>
<path style=" stroke:none;fill-rule:nonzero;fill:rgb(0%,0%,0%);fill-opacity:1;" d="M 95.25 213.921875 C 95.25 218.273438 95.550781 219.476562 96.824219 220.75 C 97.949219 221.875 98.925781 222.175781 100.351562 221.800781 C 103.800781 220.976562 104.25 220.074219 104.25 214.21875 C 104.25 207.089844 102.898438 206.941406 102.601562 213.996094 C 102.449219 218.125 102.074219 219.550781 101.101562 220.226562 C 100.125 220.824219 99.375 220.824219 98.476562 220.226562 C 97.425781 219.550781 97.050781 218.125 96.898438 213.996094 C 96.601562 207.089844 95.25 207.015625 95.25 213.921875 Z M 95.25 213.921875 "/>
<path style=" stroke:none;fill-rule:nonzero;fill:rgb(0%,0%,0%);fill-opacity:1;" d="M 109.5 214.070312 C 108.523438 217.074219 107.625 220 107.398438 220.449219 C 107.25 220.976562 107.476562 221.425781 107.925781 221.425781 C 108.375 221.425781 108.898438 220.601562 109.199219 219.550781 C 109.574219 217.972656 110.101562 217.671875 112.199219 217.671875 C 114.300781 217.671875 114.898438 218.046875 115.5 219.550781 C 115.875 220.601562 116.550781 221.425781 116.925781 221.425781 C 118.050781 221.425781 113.625 209.042969 112.425781 208.816406 C 111.601562 208.667969 110.773438 210.242188 109.5 214.070312 Z M 114 215.195312 C 114 215.722656 113.101562 216.171875 112.050781 216.171875 C 110.550781 216.171875 110.175781 215.871094 110.550781 214.972656 C 110.773438 214.296875 111.226562 212.871094 111.523438 211.820312 L 111.976562 209.792969 L 112.949219 212.042969 C 113.476562 213.246094 113.925781 214.746094 114 215.195312 Z M 114 215.195312 "/>
<path style=" stroke:none;fill-rule:nonzero;fill:rgb(0%,0%,0%);fill-opacity:1;" d="M 125.25 215.046875 C 125.25 218.800781 125.550781 221.425781 126 221.425781 C 126.449219 221.425781 126.75 220.226562 126.75 218.800781 C 126.75 216.398438 126.898438 216.171875 129 216.171875 C 132.75 216.171875 134.625 211.292969 131.699219 209.265625 C 131.25 208.964844 129.601562 208.667969 128.101562 208.667969 L 125.25 208.667969 Z M 130.800781 210.617188 C 131.476562 211.21875 132 212.042969 132 212.417969 C 132 213.621094 129.675781 215.421875 128.175781 215.421875 C 126.976562 215.421875 126.75 214.894531 126.75 212.417969 C 126.75 209.941406 126.976562 209.417969 128.175781 209.417969 C 129 209.417969 130.199219 209.941406 130.800781 210.617188 Z M 130.800781 210.617188 "/>
<path style=" stroke:none;fill-rule:nonzero;fill:rgb(0%,0%,0%);fill-opacity:1;" d="M 136.574219 210.617188 C 134.25 213.621094 134.476562 217.296875 137.25 220.074219 C 139.050781 221.875 139.949219 222.253906 141.601562 221.875 C 146.476562 220.675781 148.574219 214.597656 145.425781 210.617188 C 144.226562 209.117188 143.25 208.667969 141 208.667969 C 138.75 208.667969 137.773438 209.117188 136.574219 210.617188 Z M 144 210.917969 C 147 213.921875 145.125 220.675781 141.375 220.675781 C 136.875 220.675781 135 214.070312 138.449219 210.617188 C 140.023438 208.964844 142.199219 209.117188 144 210.917969 Z M 144 210.917969 "/>
<path style=" stroke:none;fill-rule:nonzero;fill:rgb(0%,0%,0%);fill-opacity:1;" d="M 148.050781 209.191406 C 148.351562 209.566406 149.324219 209.792969 150.226562 209.792969 C 151.726562 209.792969 151.875 210.242188 152.101562 215.570312 C 152.398438 223.304688 153.75 223.152344 153.75 215.347656 C 153.75 209.71875 153.824219 209.34375 155.175781 209.792969 C 156 210.015625 156.824219 209.867188 157.125 209.417969 C 157.425781 208.964844 155.851562 208.667969 152.550781 208.667969 C 149.773438 208.667969 147.75 208.890625 148.050781 209.191406 Z M 148.050781 209.191406 "/>
<path style=" stroke:none;fill-rule:nonzero;fill:rgb(0%,0%,0%);fill-opacity:1;" d="M 160.949219 214.519531 C 158.773438 220.902344 158.699219 221.425781 159.675781 221.425781 C 160.050781 221.425781 160.574219 220.601562 160.800781 219.550781 C 161.175781 217.972656 161.699219 217.671875 163.875 217.671875 C 166.050781 217.671875 166.574219 217.972656 166.949219 219.550781 C 167.398438 221.277344 168.75 222.253906 168.75 220.902344 C 168.75 218.800781 164.699219 208.667969 163.875 208.667969 C 163.273438 208.667969 162.074219 211.066406 160.949219 214.519531 Z M 165.675781 215.570312 C 165.75 215.945312 164.925781 216.171875 163.875 216.171875 C 161.699219 216.171875 161.699219 216.023438 162.898438 212.644531 L 163.800781 210.09375 L 164.699219 212.570312 C 165.226562 213.921875 165.675781 215.273438 165.675781 215.570312 Z M 165.675781 215.570312 "/>
<path style=" stroke:none;fill-rule:nonzero;fill:rgb(0%,0%,0%);fill-opacity:1;" d="M 171.75 215.046875 L 171.75 221.425781 L 174.601562 221.425781 C 179.398438 221.425781 181.351562 217.597656 177.898438 214.972656 C 176.925781 214.296875 176.925781 214.070312 178.050781 213.695312 C 179.476562 213.167969 179.625 210.84375 178.351562 209.566406 C 177.824219 209.042969 176.175781 208.667969 174.601562 208.667969 L 171.75 208.667969 Z M 177 210.542969 C 178.351562 212.117188 177.375 213.921875 175.125 213.921875 C 173.550781 213.921875 173.25 213.546875 173.25 211.667969 C 173.25 209.941406 173.625 209.417969 174.675781 209.417969 C 175.425781 209.417969 176.476562 209.941406 177 210.542969 Z M 177.601562 217.597656 C 177.898438 219.476562 176.699219 220.675781 174.601562 220.675781 C 173.550781 220.675781 173.25 220.074219 173.25 217.972656 C 173.25 215.496094 173.398438 215.347656 175.351562 215.570312 C 176.851562 215.722656 177.449219 216.246094 177.601562 217.597656 Z M 177.601562 217.597656 "/>
<path style=" stroke:none;fill-rule:nonzero;fill:rgb(0%,0%,0%);fill-opacity:1;" d="M 182.25 215.046875 L 182.25 221.425781 L 186.226562 221.277344 C 189.976562 221.203125 189.976562 221.125 186.976562 220.902344 L 183.75 220.601562 L 183.75 214.597656 C 183.75 211.144531 183.449219 208.667969 183 208.667969 C 182.550781 208.667969 182.25 211.292969 182.25 215.046875 Z M 182.25 215.046875 "/>
<path style=" stroke:none;fill-rule:nonzero;fill:rgb(0%,0%,0%);fill-opacity:1;" d="M 192 215.046875 L 192 221.425781 L 195.601562 221.351562 L 199.125 221.203125 L 196.125 220.75 C 193.425781 220.375 193.125 220.074219 192.898438 217.824219 C 192.675781 215.496094 192.75 215.421875 195.300781 215.421875 C 196.800781 215.421875 198 215.046875 198 214.671875 C 198 214.21875 196.800781 213.921875 195.300781 213.921875 C 192.824219 213.921875 192.675781 213.769531 192.898438 211.820312 C 193.125 210.09375 193.574219 209.71875 196.125 209.34375 L 199.125 208.890625 L 195.601562 208.742188 L 192 208.667969 Z M 192 215.046875 "/>
<path style=" stroke:none;fill-rule:nonzero;fill:rgb(0%,0%,0%);fill-opacity:1;" d="M 206.625 211.144531 C 206.324219 212.417969 206.25 215.273438 206.398438 217.296875 L 206.625 221.050781 L 210.375 221.125 C 213.074219 221.203125 213.300781 221.125 211.351562 220.902344 C 209.773438 220.75 208.425781 220.375 208.425781 220.074219 C 207.675781 215.648438 207.75 215.421875 210.449219 215.421875 C 211.875 215.421875 213 215.046875 213 214.671875 C 213 214.21875 211.875 213.921875 210.449219 213.921875 C 208.199219 213.921875 207.976562 213.695312 208.050781 211.820312 C 208.125 210.09375 208.425781 209.792969 210.523438 209.71875 C 214.425781 209.640625 214.351562 208.667969 210.523438 208.667969 C 207.226562 208.667969 207.074219 208.742188 206.625 211.144531 Z M 206.625 211.144531 "/>
<path style=" stroke:none;fill-rule:nonzero;fill:rgb(0%,0%,0%);fill-opacity:1;" d="M 216.898438 215.195312 L 217.050781 221.800781 L 217.425781 216.171875 L 217.875 210.542969 L 221.175781 216.023438 C 225.601562 223.304688 226.5 223.152344 226.5 215.046875 C 226.5 211.292969 226.199219 208.667969 225.75 208.667969 C 225.300781 208.667969 225 210.992188 225 214.070312 L 225 219.476562 L 221.550781 214.070312 C 219.675781 211.066406 217.800781 208.667969 217.425781 208.667969 C 217.050781 208.667969 216.824219 211.59375 216.898438 215.195312 Z M 216.898438 215.195312 "/>
<path style=" stroke:none;fill-rule:nonzero;fill:rgb(0%,0%,0%);fill-opacity:1;" d="M 234.75 215.046875 L 234.75 221.425781 L 238.726562 221.277344 C 242.476562 221.203125 242.476562 221.125 239.476562 220.902344 C 236.324219 220.601562 236.25 220.527344 236.25 217.972656 C 236.25 215.570312 236.398438 215.421875 238.875 215.421875 C 240.300781 215.421875 241.5 215.046875 241.5 214.671875 C 241.5 214.21875 241.273438 213.996094 240.976562 213.996094 C 240.601562 214.070312 239.476562 214.070312 238.351562 213.996094 C 236.550781 213.921875 236.25 213.621094 236.25 211.742188 C 236.25 209.71875 236.550781 209.492188 239.101562 209.191406 C 241.648438 208.964844 241.574219 208.890625 238.351562 208.816406 L 234.75 208.667969 Z M 234.75 215.046875 "/>
<path style=" stroke:none;fill-rule:nonzero;fill:rgb(0%,0%,0%);fill-opacity:1;" d="M 244.5 215.046875 L 244.5 221.425781 L 248.476562 221.277344 C 252.226562 221.203125 252.226562 221.125 249.226562 220.902344 L 246 220.601562 L 246 214.597656 C 246 211.144531 245.699219 208.667969 245.25 208.667969 C 244.800781 208.667969 244.5 211.292969 244.5 215.046875 Z M 244.5 215.046875 "/>
<path style=" stroke:none;fill-rule:nonzero;fill:rgb(0%,0%,0%);fill-opacity:1;" d="M 260.175781 210.617188 C 258.226562 212.71875 257.851562 217.523438 259.5 219.476562 C 260.925781 221.203125 265.199219 222.402344 266.773438 221.5 C 267.898438 220.824219 267.75 220.75 265.875 220.675781 C 262.199219 220.675781 260.25 218.800781 260.25 215.347656 C 260.25 211.519531 262.5 209.117188 265.574219 209.566406 C 266.773438 209.792969 267.75 209.640625 267.75 209.265625 C 267.75 208.964844 266.476562 208.667969 264.898438 208.667969 C 262.800781 208.667969 261.523438 209.191406 260.175781 210.617188 Z M 260.175781 210.617188 "/>
<path style=" stroke:none;fill-rule:nonzero;fill:rgb(0%,0%,0%);fill-opacity:1;" d="M 272.25 214.070312 C 269.773438 221.351562 269.773438 221.425781 270.675781 221.425781 C 271.125 221.425781 271.648438 220.601562 271.949219 219.550781 C 272.324219 217.972656 272.851562 217.671875 274.949219 217.671875 C 277.050781 217.671875 277.648438 218.046875 278.25 219.550781 C 278.625 220.601562 279.300781 221.425781 279.675781 221.425781 C 280.800781 221.425781 276.375 209.042969 275.175781 208.816406 C 274.425781 208.667969 273.523438 210.316406 272.25 214.070312 Z M 276.75 215.195312 C 276.75 215.722656 275.851562 216.171875 274.800781 216.171875 C 273.300781 216.171875 272.925781 215.871094 273.300781 214.972656 C 273.523438 214.296875 273.976562 212.871094 274.273438 211.820312 L 274.726562 209.792969 L 275.699219 212.042969 C 276.226562 213.246094 276.675781 214.746094 276.75 215.195312 Z M 276.75 215.195312 "/>
<path style=" stroke:none;fill-rule:nonzero;fill:rgb(0%,0%,0%);fill-opacity:1;" d="M 282.75 213.167969 C 282.75 215.570312 283.125 218.425781 283.574219 219.476562 C 285.148438 222.777344 289.875 222.628906 291.75 219.175781 C 292.726562 217.375 292.726562 208.667969 291.75 208.667969 C 291.300781 208.667969 291 210.691406 291 213.246094 C 291 218.648438 290.101562 220.675781 287.625 220.675781 C 285.148438 220.675781 284.25 218.648438 284.25 213.246094 C 284.25 210.691406 283.949219 208.667969 283.5 208.667969 C 283.050781 208.667969 282.75 210.691406 282.75 213.167969 Z M 282.75 213.167969 "/>
<path style=" stroke:none;fill-rule:nonzero;fill:rgb(0%,0%,0%);fill-opacity:1;" d="M 297.898438 209.191406 C 296.625 209.71875 294.75 213.46875 294.75 215.648438 C 294.75 219.699219 300.300781 223.378906 303.523438 221.5 C 304.648438 220.824219 304.425781 220.75 302.101562 220.675781 C 298.949219 220.675781 296.25 217.972656 296.25 214.894531 C 296.25 212.117188 299.625 209.191406 302.324219 209.566406 C 303.523438 209.792969 304.5 209.640625 304.5 209.265625 C 304.5 208.589844 299.476562 208.515625 297.898438 209.191406 Z M 297.898438 209.191406 "/>
<path style=" stroke:none;fill-rule:nonzero;fill:rgb(0%,0%,0%);fill-opacity:1;" d="M 308.699219 214.070312 C 307.648438 217.074219 306.75 220 306.75 220.449219 C 306.75 222.175781 308.101562 221.5 308.550781 219.550781 C 308.925781 217.972656 309.449219 217.671875 311.625 217.671875 C 313.800781 217.671875 314.324219 217.972656 314.699219 219.550781 C 315.148438 221.277344 316.5 222.253906 316.5 220.902344 C 316.5 218.875 312.449219 208.667969 311.699219 208.667969 C 311.101562 208.667969 309.824219 211.144531 308.699219 214.070312 Z M 313.425781 215.570312 C 313.5 215.945312 312.675781 216.171875 311.625 216.171875 C 309.523438 216.171875 309.375 215.871094 310.648438 212.34375 L 311.476562 209.867188 L 312.449219 212.417969 C 312.976562 213.84375 313.425781 215.273438 313.425781 215.570312 Z M 313.425781 215.570312 "/>
</g>
</svg>
